<svg xmlns="http://www.w3.org/2000/svg" viewBox="0 0 240 48" role="img" aria-label="JR logo">
  <rect width="240" height="48" rx="6" fill="#ffffff" />
  <g fill="#e60012">
    <path d="M30 10c-6.6 0-12 5.4-12 12.1 0 6.6 5.4 12.1 12 12.1h33.6c1.8 0 3.2-1.5 3.2-3.2s-1.4-3.2-3.2-3.2H30c-3 0-5.6-2.6-5.6-5.7 0-3.1 2.5-5.7 5.6-5.7h33.6c1.8 0 3.2-1.5 3.2-3.2S65.4 10 63.6 10H30z" />
    <path d="M92 10c-6.6 0-12 5.4-12 12.1 0 6.6 5.4 12.1 12 12.1h26.7c1.8 0 3.2-1.5 3.2-3.2s-1.4-3.2-3.2-3.2H92c-3 0-5.6-2.6-5.6-5.7 0-3.1 2.5-5.7 5.6-5.7h26.7c1.8 0 3.2-1.5 3.2-3.2S120.5 10 118.7 10H92z" />
  </g>
  <text x="150" y="31" font-size="18" font-family="system-ui, -apple-system, 'Segoe UI', sans-serif" font-weight="700" fill="#111">えきねっと</text>
</svg>
